<?xml version="1.0" encoding="iso-8859-1"?>
<!-- Generator: Adobe Illustrator 19.0.0, SVG Export Plug-In . SVG Version: 6.00 Build 0)  -->
<svg version="1.1" id="Capa_1" xmlns="http://www.w3.org/2000/svg" xmlns:xlink="http://www.w3.org/1999/xlink" x="0px" y="0px"
	 viewBox="0 0 480 480" style="enable-background:new 0 0 480 480;" xml:space="preserve">
<g>
	<g>
		<path d="M90.436,381.785c16.58-14.6,18.184-39.876,3.584-56.456c-14.6-16.58-39.876-18.184-56.456-3.584
			c-16.58,14.6-18.184,39.876-3.584,56.456c1.118,1.269,2.315,2.466,3.584,3.584C14.721,392.157,0.038,414.912,0,440v32
			c-0.001,4.417,3.579,7.999,7.996,8c0.001,0,0.003,0,0.004,0h112c4.417,0.001,7.999-3.579,8-7.996c0-0.001,0-0.003,0-0.004v-32
			C127.962,414.912,113.279,392.157,90.436,381.785z M64,328c13.255,0,24,10.745,24,24s-10.745,24-24,24
			c-13.249-0.014-23.986-10.751-24-24C40,338.745,50.745,328,64,328z M112,464H16v-24c0-26.51,21.49-48,48-48s48,21.49,48,48V464z"
			/>
	</g>
</g>
<g>
	<g>
		<path d="M442.436,381.785c16.58-14.6,18.184-39.876,3.584-56.456c-14.6-16.58-39.876-18.184-56.456-3.584
			c-16.58,14.6-18.184,39.876-3.584,56.456c1.118,1.269,2.315,2.466,3.584,3.584C366.721,392.157,352.038,414.912,352,440v32
			c-0.001,4.417,3.579,7.999,7.996,8c0.001,0,0.003,0,0.004,0h112c4.417,0.001,7.999-3.579,8-7.996c0-0.001,0-0.003,0-0.004v-32
			C479.962,414.912,465.279,392.157,442.436,381.785z M416,328c13.255,0,24,10.745,24,24s-10.745,24-24,24
			c-13.249-0.014-23.986-10.751-24-24C392,338.745,402.745,328,416,328z M464,464h-96v-24c0-26.51,21.49-48,48-48
			c26.51,0,48,21.49,48,48V464z"/>
	</g>
</g>
<g>
	<g>
		<path d="M272,0C157.309,0,64,73.148,64,163.063c0,47.305,25.984,92.039,71.379,123.023c-2.187,4.982-4.829,9.752-7.891,14.25
			c-6.523,10.367-12.156,19.32-9.648,27.203c1.116,3.452,3.718,6.224,7.094,7.555c1.628,0.635,3.366,0.941,5.113,0.898
			c13.354-1.852,26.423-5.369,38.902-10.469c10.216-3.76,20.655-6.884,31.258-9.352h0.016c23.343,6.653,47.504,10.001,71.777,9.946
			c114.691,0,208-73.148,208-163.055C480,73.148,386.691,0,272,0z M272,310.117c-22.777,0.056-45.45-3.081-67.355-9.32
			c-5.938-1.719-15.91,1.266-40.758,9.547c-9.082,3.031-21.723,7.25-29.027,8.93c1.688-3.289,4.328-7.484,6.172-10.414
			c7.547-11.992,16.941-26.922,4.977-34.906C104.059,245.953,80,205.531,80,163.063C80,81.969,166.133,16,272,16
			s192,65.969,192,147.063C464,244.148,377.867,310.117,272,310.117z"/>
	</g>
</g>
<g>
	<g>
		<path d="M424,172c-0.004-3.86-0.907-7.666-2.637-11.117C427.96,155.952,431.89,148.235,432,140c-1.195-16.524-15.464-29.009-32-28
			h-80V60c0-15.464-12.536-28-28-28c-15.464,0-28,12.536-28,28v52H160c-4.417-0.001-7.999,3.579-8,7.996c0,0.001,0,0.003,0,0.004
			v136c-0.001,4.417,3.579,7.999,7.996,8c0.001,0,0.003,0,0.004,0h212c15.456-0.019,27.981-12.544,28-28
			c0.002-2.141-0.247-4.276-0.742-6.359c14.161-6.22,20.598-22.742,14.378-36.902c-0.018-0.04-0.036-0.081-0.054-0.121
			C420.02,187.696,423.857,180.103,424,172z M208,248h-40V128h40V248z M240,248h-16V128h16V248z M406.777,150.836L406.777,150.836
			c-4.16,1.494-6.322,6.078-4.828,10.238c0.451,1.257,1.21,2.381,2.207,3.27c2.318,1.884,3.718,4.672,3.844,7.656
			c-0.49,4.955-3.918,9.127-8.684,10.57c-4.108,1.632-6.115,6.285-4.483,10.393c0.392,0.988,0.977,1.887,1.721,2.646
			c4.644,4.715,4.586,12.302-0.129,16.946c-2.268,2.234-5.332,3.473-8.515,3.445c-4.419,0.002-7.999,3.585-7.997,8.004
			c0.001,1.738,0.568,3.429,1.615,4.816c4.013,5.214,3.04,12.694-2.173,16.707c-2.107,1.622-4.695,2.492-7.354,2.473H256V128h16
			c4.417,0.001,7.999-3.579,8-7.996c0-0.001,0-0.003,0-0.004V60c0-6.627,5.373-12,12-12c6.627,0,12,5.373,12,12v60
			c-0.001,4.417,3.579,7.999,7.996,8c0.001,0,0.003,0,0.004,0h88c8.672,0,16,5.492,16,12
			C415.503,145.189,411.82,149.516,406.777,150.836z"/>
	</g>
</g>
<g>
</g>
<g>
</g>
<g>
</g>
<g>
</g>
<g>
</g>
<g>
</g>
<g>
</g>
<g>
</g>
<g>
</g>
<g>
</g>
<g>
</g>
<g>
</g>
<g>
</g>
<g>
</g>
<g>
</g>
</svg>
